<svg width="64" height="62" viewBox="0 0 64 62" fill="none" xmlns="http://www.w3.org/2000/svg" xmlns:xlink="http://www.w3.org/1999/xlink">
<path d="M64,31C64,48.121 49.673,62 32,62C14.327,62 0,48.121 0,31C0,13.879 14.327,0 32,0C49.673,0 64,13.879 64,31Z" fill="#F2F2F2"/>
<path d="M32,37.15C31.733,37.15 31.483,37.108 31.25,37.024C31.017,36.941 30.8,36.8 30.6,36.6L23.4,29.4C23.033,29.033 22.85,28.567 22.85,28C22.85,27.433 23.033,26.967 23.4,26.6C23.767,26.233 24.241,26.041 24.824,26.024C25.408,26.008 25.883,26.183 26.25,26.55L30,30.3L30,16C30,15.433 30.192,14.958 30.576,14.574C30.959,14.191 31.433,14 32,14C32.567,14 33.042,14.191 33.426,14.574C33.809,14.958 34,15.433 34,16L34,30.3L37.75,26.55C38.117,26.183 38.592,26.008 39.176,26.024C39.759,26.041 40.233,26.233 40.6,26.6C40.967,26.967 41.15,27.433 41.15,28C41.15,28.567 40.967,29.033 40.6,29.4L33.4,36.6C33.2,36.8 32.983,36.941 32.75,37.024C32.517,37.108 32.267,37.15 32,37.15ZM20,46C18.9,46 17.959,45.609 17.176,44.826C16.392,44.042 16,43.1 16,42L16,38C16,37.433 16.191,36.958 16.574,36.574C16.958,36.191 17.433,36 18,36C18.567,36 19.042,36.191 19.426,36.574C19.809,36.958 20,37.433 20,38L20,42L44,42L44,38C44,37.433 44.192,36.958 44.576,36.574C44.959,36.191 45.433,36 46,36C46.567,36 47.041,36.191 47.424,36.574C47.808,36.958 48,37.433 48,38L48,42C48,43.1 47.609,44.042 46.826,44.826C46.042,45.609 45.1,46 44,46L20,46Z" fill="#999999"/>
</svg>
