<svg width="24" height="24" viewBox="0 0 24 24" fill="none" xmlns="http://www.w3.org/2000/svg" xmlns:xlink="http://www.w3.org/1999/xlink">
<path d="M7.948,0.394L14.532,2.812L14.139,22.14L7.555,19.722L7.948,0.394Z" transform="rotate(40.215 11.044 11.267)" fill="#454444"/>
<path d="M16.27,0.394L22.855,2.812L22.462,22.14L15.877,19.722L16.27,0.394Z" transform="rotate(40.215 19.366 11.267)" fill="#454444"/>
<path d="M-0.505,0.394L6.079,2.812L5.686,22.14L-0.898,19.722L-0.505,0.394Z" transform="rotate(40.215 2.591 11.267)" fill="#454444"/>
<path d="M7.948,0.394L14.532,2.812L14.139,22.14L7.555,19.722L7.948,0.394Z" transform="rotate(40.215 11.044 11.267)" fill="#454444"/>
<path d="M16.27,0.394L22.855,2.812L22.462,22.14L15.877,19.722L16.27,0.394Z" transform="rotate(40.215 19.366 11.267)" fill="#454444"/>
</svg>
