<svg width="64" height="62" viewBox="0 0 64 62" fill="none" xmlns="http://www.w3.org/2000/svg" xmlns:xlink="http://www.w3.org/1999/xlink">
<path d="M64,31C64,48.121 49.673,62 32,62C14.327,62 0,48.121 0,31C0,13.879 14.327,0 32,0C49.673,0 64,13.879 64,31Z" fill="#F2F2F2"/>
<path d="M32,37.15C31.433,37.15 30.959,36.958 30.576,36.574C30.192,36.191 30,35.717 30,35.15L30,14.8L28.2,16.6C27.833,16.967 27.375,17.15 26.826,17.15C26.275,17.15 25.8,16.95 25.4,16.55C25.033,16.15 24.85,15.675 24.85,15.124C24.85,14.575 25.033,14.117 25.4,13.75L30.6,8.55C30.767,8.383 30.975,8.25 31.226,8.15C31.475,8.05 31.733,8 32,8C32.267,8 32.525,8.05 32.776,8.15C33.025,8.25 33.233,8.383 33.4,8.55L38.6,13.75C39,14.15 39.2,14.633 39.2,15.2C39.2,15.767 39,16.233 38.6,16.6C38.2,16.967 37.725,17.15 37.176,17.15C36.625,17.15 36.167,16.967 35.8,16.6L34,14.8L34,35.15C34,35.717 33.809,36.191 33.426,36.574C33.042,36.958 32.567,37.15 32,37.15ZM20,51.15C18.9,51.15 17.959,50.759 17.176,49.976C16.392,49.192 16,48.25 16,47.15L16,25.15C16,24.05 16.392,23.108 17.176,22.324C17.959,21.541 18.9,21.15 20,21.15L24,21.15C24.567,21.15 25.042,21.341 25.426,21.724C25.809,22.108 26,22.583 26,23.15C26,23.717 25.809,24.191 25.426,24.574C25.042,24.958 24.567,25.15 24,25.15L20,25.15L20,47.15L44,47.15L44,25.15L40,25.15C39.433,25.15 38.959,24.958 38.576,24.574C38.192,24.191 38,23.717 38,23.15C38,22.583 38.192,22.108 38.576,21.724C38.959,21.341 39.433,21.15 40,21.15L44,21.15C45.1,21.15 46.042,21.541 46.826,22.324C47.609,23.108 48,24.05 48,25.15L48,47.15C48,48.25 47.609,49.192 46.826,49.976C46.042,50.759 45.1,51.15 44,51.15L20,51.15Z" fill="#999999"/>
</svg>
