<svg width="42" height="36" viewBox="0 0 42 36" fill="none" xmlns="http://www.w3.org/2000/svg" xmlns:xlink="http://www.w3.org/1999/xlink">
<path d="M1.975,36C1.208,36 0.642,35.667 0.275,35C-0.092,34.333 -0.092,33.667 0.275,33L18.775,1C19.142,0.333 19.725,0 20.525,0C21.325,0 21.908,0.333 22.275,1L40.775,33C41.142,33.667 41.142,34.333 40.775,35C40.408,35.667 39.842,36 39.075,36L1.975,36ZM20.525,14C19.958,14 19.484,14.191 19.101,14.574C18.717,14.958 18.525,15.433 18.525,16L18.525,22C18.525,22.567 18.717,23.041 19.101,23.424C19.484,23.808 19.958,24 20.525,24C21.092,24 21.567,23.808 21.951,23.424C22.334,23.041 22.525,22.567 22.525,22L22.525,16C22.525,15.433 22.334,14.958 21.951,14.574C21.567,14.191 21.092,14 20.525,14ZM20.525,30C21.092,30 21.567,29.808 21.951,29.424C22.334,29.041 22.525,28.567 22.525,28C22.525,27.433 22.334,26.959 21.951,26.576C21.567,26.192 21.092,26 20.525,26C19.958,26 19.484,26.192 19.101,26.576C18.717,26.959 18.525,27.433 18.525,28C18.525,28.567 18.717,29.041 19.101,29.424C19.484,29.808 19.958,30 20.525,30Z" fill="#E73434"/>
</svg>
