<svg width="50" height="36" viewBox="0 0 50 36" fill="none" xmlns="http://www.w3.org/2000/svg" xmlns:xlink="http://www.w3.org/1999/xlink">
<path d="M25,25.638C23.625,25.638 22.448,25.219 21.47,24.382C20.49,23.546 20,22.54 20,21.365C20,20.19 20.49,19.184 21.47,18.346C22.448,17.51 23.625,17.092 25,17.092C26.375,17.092 27.552,17.51 28.533,18.346C29.511,19.184 30,20.19 30,21.365C30,22.54 29.511,23.546 28.533,24.382C27.552,25.219 26.375,25.638 25,25.638ZM13.125,29.217C12.167,28.113 11.407,26.902 10.845,25.585C10.282,24.267 10,22.861 10,21.365C10,17.804 11.458,14.777 14.375,12.285C17.292,9.792 20.833,8.546 25,8.546C29.167,8.546 32.708,9.792 35.625,12.285C38.542,14.777 40,17.804 40,21.365C40,22.861 39.719,24.285 39.158,25.638C38.594,26.991 37.833,28.202 36.875,29.27C36.458,29.733 35.906,29.964 35.217,29.964C34.531,29.964 33.917,29.733 33.375,29.27C32.917,28.878 32.677,28.398 32.655,27.828C32.635,27.258 32.833,26.706 33.25,26.172C33.833,25.46 34.271,24.704 34.562,23.903C34.854,23.101 35,22.255 35,21.365C35,19.015 34.021,17.003 32.062,15.329C30.104,13.656 27.75,12.819 25,12.819C22.25,12.819 19.896,13.656 17.938,15.329C15.979,17.003 15,19.015 15,21.365C15,22.291 15.157,23.145 15.47,23.929C15.782,24.712 16.208,25.46 16.75,26.172C17.167,26.706 17.354,27.267 17.313,27.856C17.271,28.442 17.021,28.932 16.563,29.323C16.063,29.751 15.469,29.955 14.783,29.937C14.094,29.92 13.542,29.68 13.125,29.217ZM6.063,35.306C4.188,33.418 2.708,31.291 1.625,28.924C0.542,26.555 0,24.036 0,21.365C0,18.41 0.657,15.632 1.97,13.033C3.282,10.433 5.063,8.172 7.313,6.249C9.563,4.326 12.208,2.804 15.25,1.681C18.292,0.56 21.542,0 25,0C28.458,0 31.708,0.56 34.75,1.681C37.792,2.804 40.438,4.326 42.688,6.249C44.938,8.172 46.718,10.433 48.03,13.033C49.343,15.632 50,18.41 50,21.365C50,24.036 49.458,26.564 48.375,28.95C47.292,31.335 45.812,33.472 43.938,35.359C43.479,35.786 42.917,36 42.25,36C41.583,36 41,35.786 40.5,35.359C40.042,34.967 39.803,34.477 39.783,33.889C39.761,33.302 39.979,32.777 40.438,32.315C41.854,30.819 42.969,29.145 43.783,27.294C44.594,25.442 45,23.466 45,21.365C45,16.593 43.062,12.552 39.188,9.24C35.312,5.929 30.583,4.273 25,4.273C19.417,4.273 14.688,5.929 10.813,9.24C6.938,12.552 5,16.593 5,21.365C5,23.466 5.407,25.433 6.22,27.266C7.032,29.101 8.167,30.766 9.625,32.261C10.083,32.724 10.303,33.249 10.283,33.836C10.261,34.424 10,34.932 9.5,35.359C9,35.786 8.417,35.991 7.75,35.972C7.083,35.955 6.521,35.733 6.063,35.306Z" fill="#16FF94"/>
</svg>
